<svg id="Layer_1" data-name="Layer 1" xmlns="http://www.w3.org/2000/svg" viewBox="0 0 5000 5000"><defs><style>.cls-1{fill:#1a1a1a;}.cls-2{fill:#fff;}</style></defs><title>Logo</title><path class="cls-1" d="M4699.48,4135.52c-62.36-47.87-126.12-93.91-188.36-142-184.61-142.64-298-330.68-356.12-555-9.88-38-.43-62.68,26.4-88.43,115.27-110,226.68-223.47,311.16-360.53,53.51-86.84,103.48-197.6,135.32-293.36-60-9.83-114.35-30.31-162.33-61.24-2.41-1.56-4.81-3.13-7.17-4.73-23.6,72.89-75.16,199-96.12,254.25-1.65-60.94-3.9-121.51-7.31-181.48H4163.52c.95,6.93,1.74,13,1.65,13.63-21.15,141.68-88.1,261.92-132,403.7-12.77-147.36,52.4-211.8-44-313.19-56.07-58.94-59.59-84.49-56.18-104.15H3761c.51,53.45,2.69,100.87,7.25,113.62,33.86,94.81,94.73,80.77,76.7,181.13-13.95-101.53-136.65-110.27-226.24-208.82-1.1-1.22-170.23-80.64-170.23-80.64,1.19,1.61-9,33.84-9,35.84,0,35.83-20.68,71.68,8.94,137.06-65.88-54.69-84.34-126.18-138.67-181.72-80.6-.93-152.78-16.78-215.23-47.23,38.46,71.5,81.83,182.1,104.36,241.49-83.57-75.62-177.51-118.75-198.54-181.27h-183.7c-12.87,33.71-31.58,94.22-33.14,164.12-2.1,94.68-4.61,80.46-14.59,139.7-4.83,29.09-10,58.07-14.38,87.27-17.93,117.42,35.74,206.07,161.11,255.23-17.82-38.75-35-70.73-47.55-104.33-31.13-84-5-143,72-168.5,62.78-56,135.77-42.93,203.39-20.28,90.48,30.15,152.09,100,201.57,179.45,33.17,53.23-29.63,67.4-45.41,100.67-14.27,30.16-35.74,8.37-53.77-1.28,18.67,33.92,22.86,67.94,12.46,107.12-11.92,45.62-11.59,94.66-1.07,140.5,51.73,227.32,143.71,434.58,331.32,582.48,79.53,62.56,174.09,106.15,261.56,158.63,47.23,28.44,92.2,60.21,131.8,98.74,17.07,16.63,33.28,34.23,38.1,58.49,3.55,17.17,6.76,38.31-13.41,46.58-19.21,7.72-26.62-12.23-34.78-24.59-31.76-47.33-70.52-88.12-120.53-122.68,14,35,28.88,69.77,41.22,105.18,6.44,18.36,9.66,38,11.91,57.43,1.73,15.45,2,33.59-15.66,40.89-20.28,8.36-26.94-10.63-35.63-22.65-37.89-52.05-80.61-99-144.79-127.5,15.66,34.77,32.62,69,46.47,104.43,10.74,27.58,20.07,59.24.33,84.68-22.76,29.41-55.6,12.23-82.43,4.93-84.79-22.86-140.29-83.39-187.41-153.15-44-65.15-88.65-129.87-130.93-196.1-61.61-96.17-144.36-170.44-238.7-232.58-42.29-27.8-76.64-61.17-96-108.52-66-161.53-168.94-301-264.47-445-62.89-95-129-188.8-148.43-305-19.64-119-63.58-163.58-49.53-231.86,7.36-35.77,29-78.19,37.87-113.62,13.15-52.6.35-107.47-10-138.87H2426.6c-18.56,74.49-61.49,296.72,66.26,624.87,17.76,45.63,11.58,61.72-32.53,76.85-218.63,74.91-414.61,25.23-594.18-108.08-66-49-88.65-123.11-90.9-202.85-1.71-60-.21-120.2-.21-186.32-25.54,17-26.62,41.53-34.24,62-85.65,228.61-216.26,418.37-448.53,521.09-76.1,33.81-155.63,55.06-237.74,65.26-68.58,8.58-135.67,21.79-201.57,42.83-45.72,14.7-91.34,26.72-136.64,46.57-120.53,52.6-148.22,149.73-145.21,288.61,2.68,126,92.73,203,176.34,281,21.58,20.07,48,35.63,61.29,62.78,9.33,18.89,9.55,41.54-10.31,52.81-21,12-24.14-13.41-32.31-24.15-27.26-35.84-55.7-69.76-103.14-95.3,1.82,34.13,23.93,53.13,31.77,77.49,12.67,39.71,31.66,85.64-15.45,110.23-45.41,23.61-71.05-17-92.53-50.56-19.75-31-37.35-63.11-68.26-90.8,6.33,30.8,13.09,61.5,18.78,92.41,5.15,27.58,8,56.35-17.5,75.88-26.18,20.07-52.7,6-77.7-5.47-126.65-57.31-197.92-246.11-141.57-373.4,12.77-28.87,39.92-41.74,67.18-63.75,15.57,43.57-14.59,87.48,17.93,144.46,32.31-281.42,87.8-537.72,324.78-707.74-216.69,56.89-294.94,158.42-322.31,407.54-3.65,33.16-8.37,66.33-11.7,99.49-3.22,31-22.22,48.19-53.66,62.78-.86-56.78,21.36-105,35.1-154,22-77.82,40-156.16,45.62-236.66,5-72.23,38.21-127.61,96.17-167.75,53.13-36.93,106.47-75.14,164.1-104.11,121.39-61.29,179.78-166,211.12-290.34,23.4-93.26,42.83-187.61,63-281.74,4.4-20.56,40.44-96.58,64.37-141.24a639.86,639.86,0,0,1-157.17,65.66q-5.93,1.61-11.93,3.11c-19.15,72.41-27.67,165.63-32.87,235.41C792.31,3034,748,3122.78,664.16,3192.12c-53.56,44.32-113.55,77.27-172.58,112.59-94.78,56.67-164.22,136.63-171.09,247.5-10.84,172.16-45.62,336.8-98.85,500.8-54.31,166.68,33.59,359.23,187.08,444.46,55.48,30.8,112.9,47.54,171.94,6.23,19.42-13.74,40.67-9.13,62.35-4.72,55.27,11,106.69,8.36,139.63-47.12,6.76-11.38,17-14.28,29-17.39,106.91-27.58,130.19-100.14,56.67-183.64C836,4214,798,4182.24,761.51,4149.17c-94-85.43-107.87-193.61-43.15-303.1,62.9-106.46,163.15-146,276.38-155.19,217.66-17.72,417.73-73.85,577.22-233.23,29.19-29.4,37-11.49,44.33,17.17,28.76,111.84,70.3,219.39,154.55,300.64,98.1,94.56,150.8,208.75,175.27,339.59,34.78,185.89,152.73,287.33,330.47,335.63,101.86,27.58,181.93-28.88,271.44-50.77,44.54-10.85,56-50,77.91-82,64.72-94,43.69-168-64.17-209-47.77-18-97.68-30.16-145.86-47-88-30.8-138.57-91.23-148.12-186.22-10-98,13.74-196.1-6.22-294-5.9-28.76,15.23-29.41,37.78-27.91,45.08,2.68,94.66,15.35,134.48,1.5,119.25-41.32,188.26,7.2,246.75,105.94,53.88,90.59,148.87,156.49,178.28,261.24,35.53,126,113.34,207.57,229,259.1,82.65,36.81,139.1,99.16,181.06,178.59,44.12,83.29,90.38,165.71,153.27,237.3,61.61,70.09,137.81,115.82,227.87,139.11,58.17,15,111.41-12.78,166.89-18.25,93.81-9.45,171.3-32.31,233.13-113,62.14-80.82,63.65-160-14.92-226.47-78.46-66.11-167.54-116.88-252.44-173.76-187.62-125.58-313.62-294.94-371-513.57-16.2-61.61-18.67-124.61,6.45-185.36,7.51-18,13.95-40.25,35-44.87,25-5.59,31,20.28,41.64,35,57.52,80.28,97.46,169.9,128.37,263,25.33,76.53,67.61,136.43,137.81,176.56,27.26,15.68,52.16,35.53,79.74,50.44,70.73,38,116.67,96.49,151.44,167.44,37.79,77.6,76.74,155.09,120.65,229.58,62.68,106.46,148.22,188.25,272,220.66,38.75,10.2,79.1,15.35,114.74-6.22,28.54-17.39,57.42-21.37,89.4-23.08,54-2.89,107.65-14.16,143.93-57.31,35.11-41.74,63.54-89.08,94.78-134v-118.2S4748,4172.76,4699.48,4135.52ZM2368.27,4329.14c1.07,35.63-24.9,49.27-60.74,30.16-33.71-18-54.42-49.7-76.64-79.1-27-36-54.31-71.59-80.82-107.76-8.7-11.71-24-28.24,4.93-32.84C2212.43,4130.15,2366.56,4268.18,2368.27,4329.14Zm2371.57,52.16c-19.64,6.66-23.51-16.1-30.92-28.55-29.4-50.44-64.93-95.73-114.41-132.44,13.52,43.89,27.58,87.79,40.68,131.8a273.62,273.62,0,0,1,9.66,46c2.15,18.46-1.29,37.24-20.71,44.32-20.18,7.52-26.62-12.12-34.89-24.35-30.8-45.94-64.61-89.41-104.43-127.62-10.52-10-17.71-26.72-44.32-23.61a1071.91,1071.91,0,0,1,57.31,159.17c15.45,56.66-7.3,84.9-64.72,74.05-83.08-15.56-141.36-68.8-184.07-136.52-64-101.43-121-207-182.68-309.76-49.26-82-117-148.76-195-202.21-78.67-54-115.6-131.38-142.75-216.59-17.18-53.56,27.15-86.09,50-139,9.55,87.48,1.4,164.85,19.85,245.57,35.75-19.1,53.35-48,73-73,23.29-29.73,36.71-35.1,56.88,3.11,27.15,51.73,65.69,95.52,116.77,131.69-21.36-59.57-43-119-63.86-178.71-6.33-18.35-17.71-37.88-8.15-56.88,14.16-28.33,34.87-60.1,64.6-63.32,24.36-2.58,23.93,35.84,31.23,56.56,78.89,222.82,208.33,402.81,420.73,518.52,80.93,44,155.52,99.92,219.6,167.75,23.19,24.58,44.11,50.88,51.95,84.26C4765.92,4352.21,4760.87,4374.11,4739.84,4381.3ZM3070.73,2612.52l.87,1.26,1.21-.66Zm1104.62-684.35v.54h.33C4175.56,1928.5,4175.45,1928.38,4175.35,1928.17ZM1027.7,2703.95c-19.9,47.75-30,105-37.44,166,46.15-59.57,83.67-87.19,118.45-135.38,3.09-4.29,37.15-18.51,67.91-31.32Z"/><path class="cls-1" d="M2153.2,1031c-33.15-10.89-60-26.49-83-53.89-25.28-30.15-62-33.21-99.14-24.7-47,10.78-94.43-1.87-139.6-.72-198.69,5.09-399.8-56.77-596.51,24-171,70.2-275,261.8-244.66,464.66,12.09,80.7,24.1,161.58,31.2,242.81,5.62,64.37,23.53,111.21-42.17,151.92-34.05,21.1-93.63,18.94-246.17,22.09-30.29.63-62.13-1.22-106.82,3.64q3.85,0,7.7,0c74.78,0,145.44,8.91,210,26.48,64.88,17.65,125.38,44.51,179.82,79.86l16.34,10.6c164.1-41.58,209.87-97.77,235.79-142.64,64.18-111.08,5.07-181-5-305.71-4.5-55.57-12.78-111.11-12.94-166.69-.33-120,64.72-186,183.13-200.56,154.38-18.93,271.46,45.61,365.39,159.39,45.13,54.68,96,93.49,167.87,82.19,54.93-8.64,69.4,18.54,80.58,61.82,8.83,34.19-1.95,72.45,25.08,110.13,12.28-20.36,34.9-41.45,30.87-54-19.59-60.83-20.75-133.13-87-169.89-41.88-23.23-68.45-59.43-91.87-99.57-15.17-26-26.83-56.84-3.06-76.59,27.54-22.88,67.81-25,102-13.93,35,11.31,25.79,44.44,22.39,71.91-1.37,11-10.77,21.58-2.36,33.69,95.87-13,135.27-83.33,157.63-162.79C2218.15,1070.62,2187.13,1042.17,2153.2,1031ZM493.51,1915.09C600.49,1937,849,1985.26,966,1987.44l5.21-3c-95.79-54.14-209-81.55-337.24-81.55A780.94,780.94,0,0,0,493.51,1915.09Z"/><path class="cls-1" d="M4397.61,2273.16q-.36,5.46-.77,10.93-1.17-3.8-2.37-7.61c-38.38-122.4-94-235.35-176.31-334.23-18.55-22.27-23.75-30.88,14.18-36.9,35.54-5.65,15.37-40.2,12.22-60.42-19.69-126.83-56.17-248.5-117.28-362.21-15.37-28.59-26.76-59.31-30-92.47C4335,1637.86,4420.21,1937.06,4397.61,2273.16Z"/><path class="cls-1" d="M4454.74,1246.78c17.08,106.11,69.25,196.69,56.79,324.67-96.3-237.72-202.7-442.13-340.43-634.06,138.19,17.64,342.58,208.66,392,368Z"/><path class="cls-1" d="M3470.84,1053.22q.11,3.49.48,6.91c.17,1.69.39,3.39.65,5.06,1.14-2.84,2.15-5.79,3.22-8.69,1.88-5.15,3.93-10.15,7.19-14.1Q3476.61,1047.81,3470.84,1053.22Zm11.57-10.85c1.39-1.28,2.77-2.59,4.16-3.88A22.1,22.1,0,0,0,3482.41,1042.37Zm-11.57,10.85q.11,3.49.48,6.91c.17,1.69.39,3.39.65,5.06,1.14-2.84,2.15-5.79,3.22-8.69,1.88-5.15,3.93-10.15,7.19-14.1Q3476.61,1047.81,3470.84,1053.22Zm11.57-10.85c1.39-1.28,2.77-2.59,4.16-3.88A22.1,22.1,0,0,0,3482.41,1042.37Zm-11.57,10.85q.11,3.49.48,6.91c.17,1.69.39,3.39.65,5.06,1.14-2.84,2.15-5.79,3.22-8.69,1.88-5.15,3.93-10.15,7.19-14.1Q3476.61,1047.81,3470.84,1053.22Zm11.57-10.85c1.39-1.28,2.77-2.59,4.16-3.88A22.1,22.1,0,0,0,3482.41,1042.37Zm-11.57,10.85q.11,3.49.48,6.91c.17,1.69.39,3.39.65,5.06,1.14-2.84,2.15-5.79,3.22-8.69,1.88-5.15,3.93-10.15,7.19-14.1Q3476.61,1047.81,3470.84,1053.22Zm11.57-10.85c1.39-1.28,2.77-2.59,4.16-3.88A22.1,22.1,0,0,0,3482.41,1042.37Zm-11.57,10.85q.11,3.49.48,6.91c.17,1.69.39,3.39.65,5.06,1.14-2.84,2.15-5.79,3.22-8.69,1.88-5.15,3.93-10.15,7.19-14.1Q3476.61,1047.81,3470.84,1053.22Zm11.57-10.85c1.39-1.28,2.77-2.59,4.16-3.88A22.1,22.1,0,0,0,3482.41,1042.37Zm-11.57,10.85q.11,3.49.48,6.91c.17,1.69.39,3.39.65,5.06,1.14-2.84,2.15-5.79,3.22-8.69,1.88-5.15,3.93-10.15,7.19-14.1Q3476.61,1047.81,3470.84,1053.22Zm11.57-10.85c1.39-1.28,2.77-2.59,4.16-3.88A22.1,22.1,0,0,0,3482.41,1042.37ZM3898,2192.76c-8.81-3.27-16.83-4.2-22.27,0a16.43,16.43,0,0,0-5.43,8.42q-4.51-4.26-8.87-8.42h-85.81v144.76q5.74,11,11.57,22.51l-7.36,54.71,149.39-200.94,8.46.86C3927.1,2208.56,3911.6,2197.83,3898,2192.76Zm-300.69-389.49c-10.32,233.05,49.39,307.14,136.23,457.9V2150.68h85C3703,2033.37,3685,1976.13,3597.27,1803.27ZM3950,2215.93l-12.4-1.26C3945.7,2219.34,3950.85,2221.29,3950,2215.93Zm-7.91-384.25c-12.2-18.47-27.68-48.15-95-175.45-15-28.4,32.68,175.51,33.91,198,6.13,111.46,17.62,197.43,47.58,296.49h14.24c58,0,111.25,4.79,159.21,14.3C4061.28,2047.6,4010.67,1935.43,3942.12,1831.68Zm138.65,372.2q-62.65-11.11-137.92-11.12h-.68q3.38,9.88,7,20a18.09,18.09,0,0,1,.87,3.18l133.79,13.66A210,210,0,0,1,4080.77,2203.88Zm29.91,6.1c2.62,2.56,4.4,3.49,4.69,1.1C4113.81,2210.7,4112.25,2210.33,4110.68,2210Zm202.56,117.68q-35-44.39-87.55-74.26c2.92,46.3,5,86.14.77,156q54.14-29.92,88.3-73.41C4314.24,2333.09,4313.74,2330.34,4313.23,2327.66Zm-92.77-178.44c.57,20.58,1.36,38.54,2.22,54.83a377.94,377.94,0,0,1,55,32.43C4264,2217.86,4246.06,2197.19,4220.47,2149.22Zm-749.63-1096q.11,3.49.48,6.91c.17,1.69.39,3.39.65,5.06,1.14-2.84,2.15-5.79,3.22-8.69,1.88-5.15,3.93-10.15,7.19-14.1Q3476.61,1047.81,3470.84,1053.22Zm11.57-10.85c1.39-1.28,2.77-2.59,4.16-3.88A22.1,22.1,0,0,0,3482.41,1042.37ZM3898,2192.76c-8.81-3.27-16.83-4.2-22.27,0a16.43,16.43,0,0,0-5.43,8.42q-4.51-4.26-8.87-8.42h-85.81v144.76q5.74,11,11.57,22.51l-7.36,54.71,149.39-200.94,8.46.86C3927.1,2208.56,3911.6,2197.83,3898,2192.76Zm-300.69-389.49c-10.32,233.05,49.39,307.14,136.23,457.9V2150.68h85C3703,2033.37,3685,1976.13,3597.27,1803.27ZM3950,2215.93l-12.4-1.26C3945.7,2219.34,3950.85,2221.29,3950,2215.93Zm-7.91-384.25c-12.2-18.47-27.68-48.15-95-175.45-15-28.4,32.68,175.51,33.91,198,6.13,111.46,17.62,197.43,47.58,296.49h14.24c58,0,111.25,4.79,159.21,14.3C4061.28,2047.6,4010.67,1935.43,3942.12,1831.68Zm138.65,372.2q-62.65-11.11-137.92-11.12h-.68q3.38,9.88,7,20a18.09,18.09,0,0,1,.87,3.18l133.79,13.66A210,210,0,0,1,4080.77,2203.88Zm29.91,6.1c2.62,2.56,4.4,3.49,4.69,1.1C4113.81,2210.7,4112.25,2210.33,4110.68,2210Zm202.56,117.68q-35-44.39-87.55-74.26c2.92,46.3,5,86.14.77,156q54.14-29.92,88.3-73.41C4314.24,2333.09,4313.74,2330.34,4313.23,2327.66Zm-92.77-178.44c.57,20.58,1.36,38.54,2.22,54.83a377.94,377.94,0,0,1,55,32.43C4264,2217.86,4246.06,2197.19,4220.47,2149.22Zm-1406.22,53c-99.89,0-183.11,18.63-248.4,55.49l283.79-55.49Zm656.6-1149q.11,3.49.48,6.91c.17,1.69.39,3.39.65,5.06,1.14-2.84,2.15-5.79,3.22-8.69,1.88-5.15,3.93-10.15,7.19-14.1Q3476.61,1047.81,3470.84,1053.22Zm11.57-10.85c1.39-1.28,2.77-2.59,4.16-3.88A22.1,22.1,0,0,0,3482.41,1042.37ZM3898,2192.76c-8.81-3.27-16.83-4.2-22.27,0a16.43,16.43,0,0,0-5.43,8.42q-4.51-4.26-8.87-8.42h-85.81v144.76q5.74,11,11.57,22.51l-7.36,54.71,149.39-200.94,8.46.86C3927.1,2208.56,3911.6,2197.83,3898,2192.76Zm-300.69-389.49c-10.32,233.05,49.39,307.14,136.23,457.9V2150.68h85C3703,2033.37,3685,1976.13,3597.27,1803.27ZM3950,2215.93l-12.4-1.26C3945.7,2219.34,3950.85,2221.29,3950,2215.93Zm-7.91-384.25c-12.2-18.47-27.68-48.15-95-175.45-15-28.4,32.68,175.51,33.91,198,6.13,111.46,17.62,197.43,47.58,296.49h14.24c58,0,111.25,4.79,159.21,14.3C4061.28,2047.6,4010.67,1935.43,3942.12,1831.68Zm138.65,372.2q-62.65-11.11-137.92-11.12h-.68q3.38,9.88,7,20a18.09,18.09,0,0,1,.87,3.18l133.79,13.66A210,210,0,0,1,4080.77,2203.88Zm29.91,6.1c2.62,2.56,4.4,3.49,4.69,1.1C4113.81,2210.7,4112.25,2210.33,4110.68,2210Zm202.56,117.68q-35-44.39-87.55-74.26c2.92,46.3,5,86.14.77,156q54.14-29.92,88.3-73.41C4314.24,2333.09,4313.74,2330.34,4313.23,2327.66Zm-92.77-178.44c.57,20.58,1.36,38.54,2.22,54.83a377.94,377.94,0,0,1,55,32.43C4264,2217.86,4246.06,2197.19,4220.47,2149.22Zm-749.63-1096q.11,3.49.48,6.91c.17,1.69.39,3.39.65,5.06,1.14-2.84,2.15-5.79,3.22-8.69,1.88-5.15,3.93-10.15,7.19-14.1Q3476.61,1047.81,3470.84,1053.22Zm11.57-10.85c1.39-1.28,2.77-2.59,4.16-3.88A22.1,22.1,0,0,0,3482.41,1042.37Zm-11.57,10.85q.11,3.49.48,6.91c.17,1.69.39,3.39.65,5.06,1.14-2.84,2.15-5.79,3.22-8.69,1.88-5.15,3.93-10.15,7.19-14.1Q3476.61,1047.81,3470.84,1053.22Zm11.57-10.85c1.39-1.28,2.77-2.59,4.16-3.88A22.1,22.1,0,0,0,3482.41,1042.37Zm-11.57,10.85q.11,3.49.48,6.91c.17,1.69.39,3.39.65,5.06,1.14-2.84,2.15-5.79,3.22-8.69,1.88-5.15,3.93-10.15,7.19-14.1Q3476.61,1047.81,3470.84,1053.22Zm11.57-10.85c1.39-1.28,2.77-2.59,4.16-3.88A22.1,22.1,0,0,0,3482.41,1042.37Zm-11.57,10.85q.11,3.49.48,6.91c.17,1.69.39,3.39.65,5.06,1.14-2.84,2.15-5.79,3.22-8.69,1.88-5.15,3.93-10.15,7.19-14.1Q3476.61,1047.81,3470.84,1053.22Zm11.57-10.85c1.39-1.28,2.77-2.59,4.16-3.88A22.1,22.1,0,0,0,3482.41,1042.37Zm-11.57,10.85q.11,3.49.48,6.91c.17,1.69.39,3.39.65,5.06,1.14-2.84,2.15-5.79,3.22-8.69,1.88-5.15,3.93-10.15,7.19-14.1Q3476.61,1047.81,3470.84,1053.22Zm11.57-10.85c1.39-1.28,2.77-2.59,4.16-3.88A22.1,22.1,0,0,0,3482.41,1042.37Zm-11.57,10.85q.11,3.49.48,6.91c.17,1.69.39,3.39.65,5.06,1.14-2.84,2.15-5.79,3.22-8.69,1.88-5.15,3.93-10.15,7.19-14.1Q3476.61,1047.81,3470.84,1053.22Zm11.57-10.85c1.39-1.28,2.77-2.59,4.16-3.88A22.1,22.1,0,0,0,3482.41,1042.37Zm-11.57,10.85q.11,3.49.48,6.91c.17,1.69.39,3.39.65,5.06,1.14-2.84,2.15-5.79,3.22-8.69,1.88-5.15,3.93-10.15,7.19-14.1Q3476.61,1047.81,3470.84,1053.22Zm11.57-10.85c1.39-1.28,2.77-2.59,4.16-3.88A22.1,22.1,0,0,0,3482.41,1042.37Zm-11.57,10.85q.11,3.49.48,6.91c.17,1.69.39,3.39.65,5.06,1.14-2.84,2.15-5.79,3.22-8.69,1.88-5.15,3.93-10.15,7.19-14.1Q3476.61,1047.81,3470.84,1053.22Zm11.57-10.85c1.39-1.28,2.77-2.59,4.16-3.88A22.1,22.1,0,0,0,3482.41,1042.37Zm-11.57,10.85q.11,3.49.48,6.91c.17,1.69.39,3.39.65,5.06,1.14-2.84,2.15-5.79,3.22-8.69,1.88-5.15,3.93-10.15,7.19-14.1Q3476.61,1047.81,3470.84,1053.22Zm11.57-10.85c1.39-1.28,2.77-2.59,4.16-3.88A22.1,22.1,0,0,0,3482.41,1042.37Zm-11.57,10.85q.11,3.49.48,6.91c.17,1.69.39,3.39.65,5.06,1.14-2.84,2.15-5.79,3.22-8.69,1.88-5.15,3.93-10.15,7.19-14.1Q3476.61,1047.81,3470.84,1053.22Zm11.57-10.85c1.39-1.28,2.77-2.59,4.16-3.88A22.1,22.1,0,0,0,3482.41,1042.37Zm-11.57,10.85q.11,3.49.48,6.91c.17,1.69.39,3.39.65,5.06,1.14-2.84,2.15-5.79,3.22-8.69,1.88-5.15,3.93-10.15,7.19-14.1Q3476.61,1047.81,3470.84,1053.22Zm11.57-10.85c1.39-1.28,2.77-2.59,4.16-3.88A22.1,22.1,0,0,0,3482.41,1042.37Zm-11.57,10.85q.11,3.49.48,6.91c.17,1.69.39,3.39.65,5.06,1.14-2.84,2.15-5.79,3.22-8.69,1.88-5.15,3.93-10.15,7.19-14.1Q3476.61,1047.81,3470.84,1053.22Zm11.57-10.85c1.39-1.28,2.77-2.59,4.16-3.88A22.1,22.1,0,0,0,3482.41,1042.37Zm1481,727.85c-8.27-217.18-37.54-429-157.74-617.61-23.62-37.06-53.94-73.47,20.94-91.76,25.14-6.14,21-38,8.88-56.66C4749.19,871.46,4680,724.77,4545.85,629.62c-124-88-262.17-149.85-401.77-203.85,11.56-28.93,102.39-40.11,24-74.08-63.48-27.53-142.3-52.05-216.53-10.88a13.77,13.77,0,0,0-1.3,2.48c.72.12,1.44.26,2.16.42,1.7,27,31.09,11.28,47,36-103.18,1.44-199.85,8.55-296.12-13.72-195.49-6.5-373.12,58.82-548.42,139.34,86.23-137.15,218.6-192,367-219.8l1.21,0a67.53,67.53,0,0,0,3-6.69c-19-33.69-51.43-13-77.28-18.88-243.35-13.61-410.72,112.62-542,299.69-68.35,97.44-61.54,164,13.47,261.15l.16.16c1.47,1.5,3,2.95,4.57,4.28a64.3,64.3,0,0,0,9.37,6.75c.88.53,1.79,1,2.7,1.51h0s1.8-3,3-4.93h0l.33-.57c20.28-18.75,42.11-36.08,60.59-56.48,116.84-129.05,161.18-138.13,338.61-57.54-67.8,22.68-125.83-4-188,5.91h0a26.22,26.22,0,0,0-2.43,5.64c-.09.29.33.87.33.87v-.57c32.95,52.38,80,77.81,135.62,93.45,47.78,13.44,96.48,25.75,141.79,45.45,94.89,41.27,103.94,71.68,60.59,173.54-8.67,37.88,27,60.88,31.66,94.28,51.39,130.29,3.08,233.19-133.1,257.28-90.85,16.07-155.51,60.59-202.88,133-31.81,48.66-72.13,63.86-126.25,57-38.5-4.91-80.48-14.29-89.92-53.79-10.75-45,39.07-39.51,63.13-57.05a32.47,32.47,0,0,0,4.54-3.92c1.53-.4,3-.81,4.56-1.23l1.43-.4c-.08-.46-.18-.92-.28-1.37a40.43,40.43,0,0,0-1.34-4.69V1457c-3.86-11.13-11.94-19-22.17-25.25l-.28-.18-.76-.45c-35.45-14.54-73.57-30.63-100.89,9.38-22.77,33.35-16.34,71.78.53,107.28,15,31.51,42.65,53.47,62.87,81,39.55,53.95,49.76,116,2.63,164.49-223.93,230.28-267.26,170.71-455.1,439.27,30.49-19.73,64.68-35.52,102.15-47.13,54.24-16.82,116.86-25.34,186.1-25.34h187.58c7.55-98.37,95.37-343.13,116-448.39C3159.33,1884,3216.69,2031,3334,2154.38a573,573,0,0,1,58.28,4.47c-59.58-120.46-101.87-234.52-94.85-375,75.1,144.27,154.34,265.91,278.69,353.23-59-122.1-95.23-249.14-102.72-383.06-3.42-61-.58-122.31-.58-197.25,148.08,105.35,239.12,237.94,316.55,384.36,11.5-153.86-15.59-301.62-49.9-471.32C3891.75,1557,3997,1663.23,4092.3,1781c17.31-119.1-50.2-235.45-397.73-683.69,67.09-15.89,114.49,38.92,178.32,45.32-10.6-70.95-69.57-111.54-96.74-190.21,231.13,117.67,386.84,283.32,512.55,493.25,11.09-173.49-145.08-402.83-452.72-675.66,53.42-3.76,98.24,12.91,167.79,30.48-73.83-85.48-162.14-105.88-241.31-157.43,92-34,175.86-9.79,273.42,2.36-73.39-84.73-166.38-107.85-257-145.19,197.54-52.66,622.6,138,775.66,348.25-87.95-16-156-72-251-80.32,191.75,230.73,350.48,468.42,445,755-67.36-4.18-84.86-76.38-153.8-75,154.6,343.18,194.44,368.24,57.39,705.63a584.66,584.66,0,0,1,61.93-3.19h187.09c-1.55-123.32-24.14-154-25.16-220.07-.53-34.5-17.13-87.41,43.69-105.4a99.39,99.39,0,0,1,10.25-2.42,152.06,152.06,0,0,1,18.5-2.16C4963.15,1819.75,4964.12,1789.16,4963.4,1770.22ZM3537.29,721.72c-83,35.55-146.21-17-227.86-69.36,112.65-11.09,204.34-34.47,287.09-110.69C3603.15,625.14,3607.74,691.57,3537.29,721.72Zm-54.87,320.65c1.39-1.28,2.77-2.59,4.16-3.88A22.1,22.1,0,0,0,3482.41,1042.37Zm-7.22,14.13c1.88-5.15,3.93-10.15,7.19-14.1q-5.78,5.41-11.54,10.81.11,3.49.48,6.91c.17,1.69.39,3.39.65,5.06C3473.11,1062.35,3474.12,1059.4,3475.2,1056.5Zm7.22-14.13c1.39-1.28,2.77-2.59,4.16-3.88A22.1,22.1,0,0,0,3482.41,1042.37Zm-11.57,10.85q.11,3.49.48,6.91c.17,1.69.39,3.39.65,5.06,1.14-2.84,2.15-5.79,3.22-8.69,1.88-5.15,3.93-10.15,7.19-14.1Q3476.61,1047.81,3470.84,1053.22Zm11.57-10.85c1.39-1.28,2.77-2.59,4.16-3.88A22.1,22.1,0,0,0,3482.41,1042.37Zm-11.57,10.85q.11,3.49.48,6.91c.17,1.69.39,3.39.65,5.06,1.14-2.84,2.15-5.79,3.22-8.69,1.88-5.15,3.93-10.15,7.19-14.1Q3476.61,1047.81,3470.84,1053.22Zm11.57-10.85c1.39-1.28,2.77-2.59,4.16-3.88A22.1,22.1,0,0,0,3482.41,1042.37Zm-11.57,10.85q.11,3.49.48,6.91c.17,1.69.39,3.39.65,5.06,1.14-2.84,2.15-5.79,3.22-8.69,1.88-5.15,3.93-10.15,7.19-14.1Q3476.61,1047.81,3470.84,1053.22Zm11.57-10.85c1.39-1.28,2.77-2.59,4.16-3.88A22.1,22.1,0,0,0,3482.41,1042.37Zm-11.57,10.85q.11,3.49.48,6.91c.17,1.69.39,3.39.65,5.06,1.14-2.84,2.15-5.79,3.22-8.69,1.88-5.15,3.93-10.15,7.19-14.1Q3476.61,1047.81,3470.84,1053.22Zm11.57-10.85c1.39-1.28,2.77-2.59,4.16-3.88A22.1,22.1,0,0,0,3482.41,1042.37Zm-11.57,10.85q.11,3.49.48,6.91c.17,1.69.39,3.39.65,5.06,1.14-2.84,2.15-5.79,3.22-8.69,1.88-5.15,3.93-10.15,7.19-14.1Q3476.61,1047.81,3470.84,1053.22Zm11.57-10.85c1.39-1.28,2.77-2.59,4.16-3.88A22.1,22.1,0,0,0,3482.41,1042.37Zm-11.57,10.85q.11,3.49.48,6.91c.17,1.69.39,3.39.65,5.06,1.14-2.84,2.15-5.79,3.22-8.69,1.88-5.15,3.93-10.15,7.19-14.1Q3476.61,1047.81,3470.84,1053.22Zm11.57-10.85c1.39-1.28,2.77-2.59,4.16-3.88A22.1,22.1,0,0,0,3482.41,1042.37Zm-11.57,10.85q.11,3.49.48,6.91c.17,1.69.39,3.39.65,5.06,1.14-2.84,2.15-5.79,3.22-8.69,1.88-5.15,3.93-10.15,7.19-14.1Q3476.61,1047.81,3470.84,1053.22ZM4714.06,2192.76c-74,0-138,13.32-192.54,40.27l222-40.27Zm-68.14-38.19c-14.24-236.59-61-166.68-153.17-399.09-13.94-31.86-30.72-53.33-31.69,3.09-.75,43.31-1,86.62-1.05,129.95q0,8.74,0,17.48c.05,79.79.82,159.59,1,239.38,0,.13,0,.23,0,.36a0,0,0,0,1,0,0,0,0,0,0,1,0,0,0,0,0,0,1,0,0,0,0,0,0,1,0,.05s0,0,0,0,0,0,0,0c-1.09,33.12-.42,45.84.52,49.79-1.49,4.23-3.95,12.87-7.77,29.13Q4535,2167.78,4645.92,2154.57ZM3482.41,1042.37c1.39-1.28,2.77-2.59,4.16-3.88A22.1,22.1,0,0,0,3482.41,1042.37Zm-11.57,10.85q.11,3.49.48,6.91c.17,1.69.39,3.39.65,5.06,1.14-2.84,2.15-5.79,3.22-8.69,1.88-5.15,3.93-10.15,7.19-14.1Q3476.61,1047.81,3470.84,1053.22Zm11.57-10.85c1.39-1.28,2.77-2.59,4.16-3.88A22.1,22.1,0,0,0,3482.41,1042.37Zm-11.57,10.85q.11,3.49.48,6.91c.17,1.69.39,3.39.65,5.06,1.14-2.84,2.15-5.79,3.22-8.69,1.88-5.15,3.93-10.15,7.19-14.1Q3476.61,1047.81,3470.84,1053.22Zm11.57-10.85c1.39-1.28,2.77-2.59,4.16-3.88A22.1,22.1,0,0,0,3482.41,1042.37Zm-11.57,10.85q.11,3.49.48,6.91c.17,1.69.39,3.39.65,5.06,1.14-2.84,2.15-5.79,3.22-8.69,1.88-5.15,3.93-10.15,7.19-14.1Q3476.61,1047.81,3470.84,1053.22Zm11.57-10.85c1.39-1.28,2.77-2.59,4.16-3.88A22.1,22.1,0,0,0,3482.41,1042.37Zm-11.57,10.85q.11,3.49.48,6.91c.17,1.69.39,3.39.65,5.06,1.14-2.84,2.15-5.79,3.22-8.69,1.88-5.15,3.93-10.15,7.19-14.1Q3476.61,1047.81,3470.84,1053.22Zm842.39,1274.45q-35-44.39-87.55-74.26c2.92,46.3,5,86.14.77,156q54.14-29.92,88.3-73.41C4314.24,2333.09,4313.74,2330.34,4313.23,2327.66Zm-92.77-178.44c.57,20.58,1.36,38.54,2.22,54.83a377.94,377.94,0,0,1,55,32.43C4264,2217.86,4246.06,2197.19,4220.47,2149.22Zm-278.34-317.54c-12.2-18.47-27.68-48.15-95-175.45-15-28.4,32.68,175.51,33.91,198,6.13,111.46,17.62,197.43,47.58,296.49h14.24c58,0,111.25,4.79,159.21,14.3C4061.28,2047.6,4010.67,1935.43,3942.12,1831.68Zm138.65,372.2q-62.65-11.11-137.92-11.12h-.68q3.38,9.88,7,20a18.09,18.09,0,0,1,.87,3.18l133.79,13.66A210,210,0,0,1,4080.77,2203.88Zm29.91,6.1c2.62,2.56,4.4,3.49,4.69,1.1C4113.81,2210.7,4112.25,2210.33,4110.68,2210ZM3950,2215.93l-12.4-1.26C3945.7,2219.34,3950.85,2221.29,3950,2215.93ZM3898,2192.76c-8.81-3.27-16.83-4.2-22.27,0a16.43,16.43,0,0,0-5.43,8.42q-4.51-4.26-8.87-8.42h-85.81v144.76q5.74,11,11.57,22.51l-7.36,54.71,149.39-200.94,8.46.86C3927.1,2208.56,3911.6,2197.83,3898,2192.76Zm-300.69-389.49c-10.32,233.05,49.39,307.14,136.23,457.9V2150.68h85C3703,2033.37,3685,1976.13,3597.27,1803.27Zm-114.86-760.9c1.39-1.28,2.77-2.59,4.16-3.88A22.1,22.1,0,0,0,3482.41,1042.37Zm-11.57,10.85q.11,3.49.48,6.91c.17,1.69.39,3.39.65,5.06,1.14-2.84,2.15-5.79,3.22-8.69,1.88-5.15,3.93-10.15,7.19-14.1Q3476.61,1047.81,3470.84,1053.22Zm-55,1152q-16.88-3.25-34.49-5.32,25.72,22.69,54.81,44.21Q3425.81,2224.45,3415.82,2205.22Zm897.41,122.44q-35-44.39-87.55-74.26c2.92,46.3,5,86.14.77,156q54.14-29.92,88.3-73.41C4314.24,2333.09,4313.74,2330.34,4313.23,2327.66Zm-92.77-178.44c.57,20.58,1.36,38.54,2.22,54.83a377.94,377.94,0,0,1,55,32.43C4264,2217.86,4246.06,2197.19,4220.47,2149.22Zm-278.34-317.54c-12.2-18.47-27.68-48.15-95-175.45-15-28.4,32.68,175.51,33.91,198,6.13,111.46,17.62,197.43,47.58,296.49h14.24c58,0,111.25,4.79,159.21,14.3C4061.28,2047.6,4010.67,1935.43,3942.12,1831.68Zm138.65,372.2q-62.65-11.11-137.92-11.12h-.68q3.38,9.88,7,20a18.09,18.09,0,0,1,.87,3.18l133.79,13.66A210,210,0,0,1,4080.77,2203.88Zm29.91,6.1c2.62,2.56,4.4,3.49,4.69,1.1C4113.81,2210.7,4112.25,2210.33,4110.68,2210ZM3950,2215.93l-12.4-1.26C3945.7,2219.34,3950.85,2221.29,3950,2215.93ZM3898,2192.76c-8.81-3.27-16.83-4.2-22.27,0a16.43,16.43,0,0,0-5.43,8.42q-4.51-4.26-8.87-8.42h-85.81v144.76q5.74,11,11.57,22.51l-7.36,54.71,149.39-200.94,8.46.86C3927.1,2208.56,3911.6,2197.83,3898,2192.76Zm-300.69-389.49c-10.32,233.05,49.39,307.14,136.23,457.9V2150.68h85C3703,2033.37,3685,1976.13,3597.27,1803.27Zm-114.86-760.9c1.39-1.28,2.77-2.59,4.16-3.88A22.1,22.1,0,0,0,3482.41,1042.37Zm-11.57,10.85q.11,3.49.48,6.91c.17,1.69.39,3.39.65,5.06,1.14-2.84,2.15-5.79,3.22-8.69,1.88-5.15,3.93-10.15,7.19-14.1Q3476.61,1047.81,3470.84,1053.22Zm842.39,1274.45q-35-44.39-87.55-74.26c2.92,46.3,5,86.14.77,156q54.14-29.92,88.3-73.41C4314.24,2333.09,4313.74,2330.34,4313.23,2327.66Zm-92.77-178.44c.57,20.58,1.36,38.54,2.22,54.83a377.94,377.94,0,0,1,55,32.43C4264,2217.86,4246.06,2197.19,4220.47,2149.22Zm-278.34-317.54c-12.2-18.47-27.68-48.15-95-175.45-15-28.4,32.68,175.51,33.91,198,6.13,111.46,17.62,197.43,47.58,296.49h14.24c58,0,111.25,4.79,159.21,14.3C4061.28,2047.6,4010.67,1935.43,3942.12,1831.68Zm138.65,372.2q-62.65-11.11-137.92-11.12h-.68q3.38,9.88,7,20a18.09,18.09,0,0,1,.87,3.18l133.79,13.66A210,210,0,0,1,4080.77,2203.88Zm29.91,6.1c2.62,2.56,4.4,3.49,4.69,1.1C4113.81,2210.7,4112.25,2210.33,4110.68,2210ZM3950,2215.93l-12.4-1.26C3945.7,2219.34,3950.85,2221.29,3950,2215.93ZM3898,2192.76c-8.81-3.27-16.83-4.2-22.27,0a16.43,16.43,0,0,0-5.43,8.42q-4.51-4.26-8.87-8.42h-85.81v144.76q5.74,11,11.57,22.51l-7.36,54.71,149.39-200.94,8.46.86C3927.1,2208.56,3911.6,2197.83,3898,2192.76Zm-300.69-389.49c-10.32,233.05,49.39,307.14,136.23,457.9V2150.68h85C3703,2033.37,3685,1976.13,3597.27,1803.27Zm-114.86-760.9c1.39-1.28,2.77-2.59,4.16-3.88A22.1,22.1,0,0,0,3482.41,1042.37Zm-11.57,10.85q.11,3.49.48,6.91c.17,1.69.39,3.39.65,5.06,1.14-2.84,2.15-5.79,3.22-8.69,1.88-5.15,3.93-10.15,7.19-14.1Q3476.61,1047.81,3470.84,1053.22Zm842.39,1274.45q-35-44.39-87.55-74.26c2.92,46.3,5,86.14.77,156q54.14-29.92,88.3-73.41C4314.24,2333.09,4313.74,2330.34,4313.23,2327.66Zm-92.77-178.44c.57,20.58,1.36,38.54,2.22,54.83a377.94,377.94,0,0,1,55,32.43C4264,2217.86,4246.06,2197.19,4220.47,2149.22Zm-278.34-317.54c-12.2-18.47-27.68-48.15-95-175.45-15-28.4,32.68,175.51,33.91,198,6.13,111.46,17.62,197.43,47.58,296.49h14.24c58,0,111.25,4.79,159.21,14.3C4061.28,2047.6,4010.67,1935.43,3942.12,1831.68Zm138.65,372.2q-62.65-11.11-137.92-11.12h-.68q3.38,9.88,7,20a18.09,18.09,0,0,1,.87,3.18l133.79,13.66A210,210,0,0,1,4080.77,2203.88Zm29.91,6.1c2.62,2.56,4.4,3.49,4.69,1.1C4113.81,2210.7,4112.25,2210.33,4110.68,2210ZM3950,2215.93l-12.4-1.26C3945.7,2219.34,3950.85,2221.29,3950,2215.93ZM3898,2192.76c-8.81-3.27-16.83-4.2-22.27,0a16.43,16.43,0,0,0-5.43,8.42q-4.51-4.26-8.87-8.42h-85.81v144.76q5.74,11,11.57,22.51l-7.36,54.71,149.39-200.94,8.46.86C3927.1,2208.56,3911.6,2197.83,3898,2192.76Zm-300.69-389.49c-10.32,233.05,49.39,307.14,136.23,457.9V2150.68h85C3703,2033.37,3685,1976.13,3597.27,1803.27Zm-114.86-760.9c1.39-1.28,2.77-2.59,4.16-3.88A22.1,22.1,0,0,0,3482.41,1042.37Zm-11.57,10.85q.11,3.49.48,6.91c.17,1.69.39,3.39.65,5.06,1.14-2.84,2.15-5.79,3.22-8.69,1.88-5.15,3.93-10.15,7.19-14.1Q3476.61,1047.81,3470.84,1053.22Zm11.57-10.85c1.39-1.28,2.77-2.59,4.16-3.88A22.1,22.1,0,0,0,3482.41,1042.37Zm-11.57,10.85q.11,3.49.48,6.91c.17,1.69.39,3.39.65,5.06,1.14-2.84,2.15-5.79,3.22-8.69,1.88-5.15,3.93-10.15,7.19-14.1Q3476.61,1047.81,3470.84,1053.22Zm842.39,1274.45q-35-44.39-87.55-74.26c2.92,46.3,5,86.14.77,156q54.14-29.92,88.3-73.41C4314.24,2333.09,4313.74,2330.34,4313.23,2327.66Zm-92.77-178.44c.57,20.58,1.36,38.54,2.22,54.83a377.94,377.94,0,0,1,55,32.43C4264,2217.86,4246.06,2197.19,4220.47,2149.22Zm-278.34-317.54c-12.2-18.47-27.68-48.15-95-175.45-15-28.4,32.68,175.51,33.91,198,6.13,111.46,17.62,197.43,47.58,296.49h14.24c58,0,111.25,4.79,159.21,14.3C4061.28,2047.6,4010.67,1935.43,3942.12,1831.68Zm138.65,372.2q-62.65-11.11-137.92-11.12h-.68q3.38,9.88,7,20a18.09,18.09,0,0,1,.87,3.18l133.79,13.66A210,210,0,0,1,4080.77,2203.88Zm29.91,6.1c2.62,2.56,4.4,3.49,4.69,1.1C4113.81,2210.7,4112.25,2210.33,4110.68,2210ZM3950,2215.93l-12.4-1.26C3945.7,2219.34,3950.85,2221.29,3950,2215.93ZM3898,2192.76c-8.81-3.27-16.83-4.2-22.27,0a16.43,16.43,0,0,0-5.43,8.42q-4.51-4.26-8.87-8.42h-85.81v144.76q5.74,11,11.57,22.51l-7.36,54.71,149.39-200.94,8.46.86C3927.1,2208.56,3911.6,2197.83,3898,2192.76Zm-300.69-389.49c-10.32,233.05,49.39,307.14,136.23,457.9V2150.68h85C3703,2033.37,3685,1976.13,3597.27,1803.27Zm-114.86-760.9c1.39-1.28,2.77-2.59,4.16-3.88A22.1,22.1,0,0,0,3482.41,1042.37Zm-11.57,10.85q.11,3.49.48,6.91c.17,1.69.39,3.39.65,5.06,1.14-2.84,2.15-5.79,3.22-8.69,1.88-5.15,3.93-10.15,7.19-14.1Q3476.61,1047.81,3470.84,1053.22Zm11.57-10.85c1.39-1.28,2.77-2.59,4.16-3.88A22.1,22.1,0,0,0,3482.41,1042.37Zm-11.57,10.85q.11,3.49.48,6.91c.17,1.69.39,3.39.65,5.06,1.14-2.84,2.15-5.79,3.22-8.69,1.88-5.15,3.93-10.15,7.19-14.1Q3476.61,1047.81,3470.84,1053.22Zm11.57-10.85c1.39-1.28,2.77-2.59,4.16-3.88A22.1,22.1,0,0,0,3482.41,1042.37Zm-11.57,10.85q.11,3.49.48,6.91c.17,1.69.39,3.39.65,5.06,1.14-2.84,2.15-5.79,3.22-8.69,1.88-5.15,3.93-10.15,7.19-14.1Q3476.61,1047.81,3470.84,1053.22Zm11.57-10.85c1.39-1.28,2.77-2.59,4.16-3.88A22.1,22.1,0,0,0,3482.41,1042.37Zm-11.57,10.85q.11,3.49.48,6.91c.17,1.69.39,3.39.65,5.06,1.14-2.84,2.15-5.79,3.22-8.69,1.88-5.15,3.93-10.15,7.19-14.1Q3476.61,1047.81,3470.84,1053.22Zm11.57-10.85c1.39-1.28,2.77-2.59,4.16-3.88A22.1,22.1,0,0,0,3482.41,1042.37Zm-11.57,10.85q.11,3.49.48,6.91c.17,1.69.39,3.39.65,5.06,1.14-2.84,2.15-5.79,3.22-8.69,1.88-5.15,3.93-10.15,7.19-14.1Q3476.61,1047.81,3470.84,1053.22Z"/><path class="cls-1" d="M4397.61,2273.16q-.36,5.46-.77,10.93-1.17-3.8-2.37-7.61c-38.38-122.4-94-235.35-176.31-334.23-18.55-22.27-23.75-30.88,14.18-36.9,35.54-5.65,15.37-40.2,12.22-60.42-19.69-126.83-56.17-248.5-117.28-362.21-15.37-28.59-26.76-59.31-30-92.47C4335,1637.86,4420.21,1937.06,4397.61,2273.16Z"/><path class="cls-1" d="M4469.89,1823.83c-7.34,109.48,7.35,219.68-8.92,329.11q0-3.49,0-7s0,0,0,0,0,0,0,0a0,0,0,0,0,0-.05,0,0,0,0,0,0,0,0,0,0,0,0,0,0,0,0,0,0,0,0,0c-.17-79.91-.95-159.82-.95-239.73q0-8.74,0-17.48.09-61.2,1.05-122.38c1-56.42,17.75-34.95,31.69-3.09C4443.05,1766.58,4471.19,1804.4,4469.89,1823.83Z"/><path class="cls-1" d="M4454.74,1246.78c17.08,106.11,69.25,196.69,56.79,324.67-96.3-237.72-202.7-442.13-340.43-634.06,138.19,17.64,342.58,208.66,392,368Z"/><path class="cls-1" d="M3195.79,908.36c-51,8.13-90.42,32-106.29,91-8.72,32.45-75.39,46.88-79.09,31-12.1-51.9-117.27-81.8-47.7-150.69C3040.6,971.83,3127.22,842.49,3195.79,908.36Z"/><path class="cls-1" d="M3215.85,1135.59,3034.69,1093c66.6-18,83.71-78,154.43-126.67C3150.94,1042.52,3166.23,1087,3215.85,1135.59Z"/><path class="cls-1" d="M3472,1072.55a97.75,97.75,0,0,1-1.14-12q5.78-5.4,11.54-10.81C3477.3,1055.94,3475.13,1064.68,3472,1072.55Z"/><path class="cls-1" d="M3198.81,1389c-47.81,36.33-99.9,64.94-158,81.25q-3,.84-6,1.63,2-4,4.35-7.68h0c26.83-42.62,78.91-48.89,116.85-75.57,83.52-58.73,83.07-119.69-4.89-170.85-45.44-26.43-93.22-32.28-144.49-19.17-51.55,13.17-101.32,31.78-152.36,46.37-51.63,14.76-98.74,6.94-141.6-25.91-53.72-41.17-55.14-68.87,5.85-96.65,42.74-19.46,34.94-76.42,77.91-87.74,38-10,76-19.91,113.45-30.16-10.84-13-20.88-61.28-17.59-103,1.95-4.17,3.89-8.34,5.91-12.46s3.92-7.89,6-11.74c7.86-14.39,17.23-27.68,30.72-37.93q2.87-2.21,6-4.2l-3.29,5.71h0l-32.44,56.25c-1,35.68-1,71.23,17.12,103.58l-.19.4a17.64,17.64,0,0,1-3.05,4.83,9.79,9.79,0,0,0,3.82-4.22,122.59,122.59,0,0,0,12.25,17.53c-155.57,32.91-155.57,32.91-163.88,131.37-22.56-4.4-45-12.9-67.17-12-26.15,1-31.31,28.46-14.28,37.66,48.35,26.13,88.31,82.06,156.87,50.58,56.24-25.82,114.54-46.17,175.91-57.85,69.52-13.21,129.54,6.65,181.73,50.21C3269.41,1273.55,3266.66,1337.44,3198.81,1389Z"/><path class="cls-1" d="M3487.77,1161.88c6.19,21.85,6.88,45.07-2.69,70.86-26.64-86.94-143-143.53-88.72-275.59,25.15,50,11.91,99.71,51.06,125.35,1.68,2.78,3.39,5.55,5.08,8.33a33.14,33.14,0,0,1-4.3.43l-1.55,0c-28.47-1.54-35.42-26.92-50.2-46.7,11.92,36.77,39.64,62,60.94,90.62,8.49,11.37,16,23.27,21,36.63C3482.36,1169.52,3485.23,1165.89,3487.77,1161.88Z"/><path class="cls-1" d="M3198.36,1389.21c-47.81,36.33-99.9,64.94-158,81.25q-3,.84-6,1.63l-21.89-16.16c2-5,3.07-10.83,3.8-17,3.23-27.52.23-60.48,54.75-41.08,25.15,9,46.6-13.66,54.85-39.56,7.65-24-8.61-39.76-23-57-55.76-66.77-129.7-22-194.08-28.16-23.16-2.2,6.6,49.78-12.1,79.2-88-35.82-195.76-35.77-240.55-149.58-25.37-64.46-28.63-115.78,45.75-142.5,48.41-17.39,83.87-55.45,140.21-65.17,47.07-8.12,1.68-87.51,45-118.1,6.77-.93,12.72-1.12,16.6.46,5.42,2.21,6.84,7.87,1,19.84-1,35.68-1,71.23,17.12,103.58l.58,1a122.59,122.59,0,0,0,12.25,17.53c-155.57,32.91-155.57,32.91-163.88,131.37-22.56-4.4-45-12.9-67.17-12-26.15,1-31.31,28.46-14.28,37.66,48.35,26.13,88.31,82.06,156.87,50.58,56.24-25.82,114.54-46.17,175.91-57.85,69.52-13.21,129.54,6.65,181.73,50.21C3269,1273.75,3266.21,1337.64,3198.36,1389.21Z"/><path class="cls-1" d="M4478.61,2017.38c-5,45.32,5.67,92.62-17.64,135.56q0-3.49,0-7s0,0,0,0,0,0,0,0a0,0,0,0,0,0-.05,0,0,0,0,0,0,0,0,0,0,0,0,0,0,0,0,0,0,0,0,0c-.17-79.91-.95-159.82-.95-239.73q0-8.74,0-17.48.09-61.2,1.05-122.38c1-56.42,17.75-34.95,31.69-3.09C4462.62,1846.39,4487.9,1932.83,4478.61,2017.38Z"/><path class="cls-1" d="M3472,1072.55a97.75,97.75,0,0,1-1.14-12q5.78-5.4,11.54-10.81C3477.3,1055.94,3475.13,1064.68,3472,1072.55Z"/><path class="cls-1" d="M3487.77,1161.88c6.19,21.85,6.88,45.07-2.69,70.86-5.3-33.5-18.35-65-27.68-97.53-4.12-14.38-7.53-28.94-9.19-43.94-.34-2.9-.59-5.83-.78-8.76,1.68,2.78,3.39,5.55,5.08,8.33C3466.63,1113.92,3480.75,1137,3487.77,1161.88Z"/><path class="cls-1" d="M2940.51,835.21l-3.29,5.71h0l-32.44,56.25-7-8.1q-5.27-6.11-10.56-12.2c4.7-21.81,17-36.94,33.38-48.5a146.59,146.59,0,0,1,19-11.26Q2940.06,826.15,2940.51,835.21Z"/><path class="cls-1" d="M4397.61,2273.16q-.36,5.46-.77,10.93-1.17-3.8-2.37-7.61c-38.38-122.4-94-235.35-176.31-334.23-18.55-22.27-23.75-30.88,14.18-36.9,35.54-5.65,15.37-40.2,12.22-60.42-19.69-126.83-56.17-248.5-117.28-362.21-15.37-28.59-26.76-59.31-30-92.47C4335,1637.86,4420.21,1937.06,4397.61,2273.16Z"/><path class="cls-1" d="M4454.74,1246.78c17.08,106.11,69.25,196.69,56.79,324.67-96.3-237.72-202.7-442.13-340.43-634.06,138.19,17.64,342.58,208.66,392,368Z"/><path class="cls-1" d="M3195.79,908.36c-51,8.13-90.42,32-106.29,91-8.72,32.45-75.39,46.88-79.09,31-12.1-51.9-117.27-81.8-47.7-150.69C3040.6,971.83,3127.22,842.49,3195.79,908.36Z"/><path class="cls-1" d="M3215.85,1135.59,3034.69,1093c66.6-18,83.71-78,154.43-126.67C3150.94,1042.52,3166.23,1087,3215.85,1135.59Z"/><path class="cls-1" d="M3485.07,1232.74c-26.64-86.94-143-143.53-88.72-275.59,25.15,50,11.91,99.71,51.06,125.35,1.68,2.78,3.39,5.55,5.08,8.33,14.13,23.08,28.25,46.17,35.26,71C3494,1183.73,3494.65,1206.95,3485.07,1232.74Z"/><path class="cls-1" d="M1464.29,2202.23v218.89l-27.21-8.33c-58.8-18-129.54-28.63-210.27-31.56l-20.27-.74V2192.76H1060.32v468.95l146.23-.69V2426.12l21.79.78c52,1.86,97.37,8.62,134.74,20.08,38.76,11.89,70.26,29.24,93.65,51.56l6.51,6.22v165.62h137.81V2202.23Z"/><path class="cls-1" d="M1669.44,2192.76v468.15h146.23V2192.76Z"/><path class="cls-1" d="M2814.24,2202.23c-99.89,0-183.11,18.63-248.4,55.49a318.8,318.8,0,0,0-52.57,36.93l-13.79,12-13.79-12c-70.67-61.32-171.93-92.42-301-92.42h-166v468.15h146.23V2236.86l21.67.64c64,1.91,120.83,17.21,169,45.46,62,36.53,93.42,87.72,93.42,152.16v235.25h110.46V2435.13c0-63.77,31.16-114.92,92.61-152l.36-.21c48.83-28.19,105.82-43.47,169.41-45.38l21.67-.65v433.53h136.76V2202.23Z"/><path class="cls-1" d="M3552.18,2257.29c-40.45-25-86.08-42.44-136.36-52.07q-16.88-3.25-34.49-5.32a548.41,548.41,0,0,0-64.07-3.65c-76.41,0-144.49,14.38-202.95,42.8l63.18,35.05c37.62-27.55,84.55-41.51,139.76-41.51,53.72,0,99.25,13,135.33,38.54,31.52,22,60.78,57.38,87,105.1l17.11,31.16h-238.9l41.37,38.92h198.67l-17.39,31.27c-26.18,47.09-55.41,82.26-86.85,104.55-36.73,25.87-82.56,39-136.3,39-55.75,0-103-13.71-140.61-40.78l-63,34.43c58.46,28.34,126.76,42.68,203.59,42.68,185,0,309.69-75.17,381-229.75C3664.08,2353.44,3615,2296.14,3552.18,2257.29ZM3071.6,2613.78l-1.67.92c1.28.8,2.58,1.59,3.88,2.36C3073.06,2615.94,3072.32,2614.84,3071.6,2613.78Z"/><path class="cls-2" d="M3070.73,2612.52l.87,1.26,1.21-.66Zm.87,1.26-1.67.92c1.28.8,2.58,1.59,3.88,2.36C3073.06,2615.94,3072.32,2614.84,3071.6,2613.78Z"/><path class="cls-1" d="M4226.45,2409.36q54.14-29.92,88.3-73.41c.83-1,1.64-2.09,2.44-3.16q-2-2.59-4-5.13-35-44.39-87.55-74.26-48-27.27-110.31-42.31c-1.56-.39-3.12-.76-4.69-1.1q-14.57-3.41-29.91-6.1-62.65-11.11-137.92-11.12H3898c-8.81-3.27-16.83-4.2-22.27,0H3775.58v468.15h146.23V2472.6H3961l4.84,2.76c57.57,32.77,104.62,65.76,139.86,98.06,31.62,29,54.74,58.36,68.89,87.5h139.19c-21.47-35.65-42.07-64.27-61.42-85.3l-.19-.2c-32.38-36.15-73.42-66.28-122-89.56L4080,2461.76l53.62-15.13Q4185.53,2432,4226.45,2409.36Zm-283.88,30.83-21.82.81V2233.19l21.83.82c58.12,2.17,107.61,10.51,147.05,24.79,41.3,15,73.07,36.88,94.42,65.18l9.5,12.6-9.43,12.65c-21.34,28.63-53.11,50.81-94.42,65.93C4050.24,2429.61,4000.73,2438,3942.58,2440.2Z"/><path class="cls-2" d="M3875.69,2192.76H3898C3889.15,2189.49,3881.13,2188.57,3875.69,2192.76Z"/><path class="cls-1" d="M4714.06,2192.76c-74,0-138,13.32-192.54,40.27-76.53,37.79-134.45,102.38-175.08,194.66,33.42,74.94,81.12,132.73,141.9,171.9,63.12,40.69,139.06,61.32,225.72,61.32H4880.2V2192.76ZM4734,2631l-24-3.45c-120-17.23-206.35-80.07-256.82-186.8l-4.23-8.93,4.19-9c49.84-106.73,136.24-169.9,256.77-187.76l24.12-3.58Z"/><path class="cls-2" d="M4645.92,2154.57q.38,6.22.73,12.74,2.79-6.8,5.48-13.44Q4649,2154.2,4645.92,2154.57Zm-251.45,121.91q1.2,3.8,2.37,7.61.41-5.48.77-10.93C4396.55,2274.26,4395.51,2275.37,4394.47,2276.48Z"/><path class="cls-1" d="M849.08,2520.86c-56.78,45-129.05,67.82-215.06,67.82-96.11,0-175-29.14-234.42-86.6-41.2-40.21-84-107.22-130.93-204.94l-4.33-9,4.26-9c46-97.86,88.94-165,131.11-205.21,60.36-57.4,139.19-86.5,234.32-86.5,85.17,0,157,23.23,213.73,69.08l118.3-69,5.21-3c-95.79-54.14-209-81.55-337.24-81.55a780.94,780.94,0,0,0-140.51,12.23c-83.52,15.22-159.08,44.65-225.71,88-99.92,65-177.73,161.31-231.37,286.3,111.17,258.23,306.74,383.8,597.59,383.8,129,0,242.6-27.36,338.39-81.43Z"/></svg>